<svg width="74" height="24" viewBox="0 0 74 24" fill="none" xmlns="http://www.w3.org/2000/svg">
<g clip-path="url(#clip0_0_578)">
<path d="M70.1409 1.28952C70.1409 0.579722 70.7086 0.00372178 71.409 0.00372178H72.2549C72.5914 0.00372178 72.9141 0.13919 73.152 0.380324C73.3899 0.621458 73.5236 0.948506 73.5236 1.28952C73.5236 1.63054 73.3899 1.95759 73.152 2.19872C72.9141 2.43985 72.5914 2.57532 72.2549 2.57532H71.409C71.2424 2.57532 71.0775 2.54206 70.9236 2.47743C70.7697 2.41281 70.6299 2.31809 70.5121 2.19868C70.3944 2.07928 70.301 1.93753 70.2373 1.78153C70.1736 1.62553 70.1408 1.45835 70.1409 1.28952ZM34.6262 8.57412C34.6262 13.3069 30.841 17.1439 26.1707 17.1439C21.501 17.1439 17.7152 13.3069 17.7152 8.57412C17.7152 3.84012 21.501 0.00432178 26.1707 0.00432178C30.841 0.00432178 34.6262 3.84012 34.6262 8.57412ZM16.0659 8.53152C16.5335 8.53152 16.916 8.91552 16.8692 9.38712C16.7094 11.001 16.1009 12.5358 15.1146 13.8131C14.1282 15.0904 12.8044 16.0578 11.2971 16.6028C9.7898 17.1478 8.16081 17.2481 6.59949 16.892C5.03816 16.5359 3.60861 15.738 2.47697 14.591C1.34534 13.4441 0.558087 11.9952 0.206717 10.4128C-0.144653 8.83039 -0.0457136 7.1794 0.492035 5.6517C1.02978 4.12401 1.98426 2.78236 3.24454 1.78267C4.50481 0.782978 6.01913 0.166307 7.61151 0.00432178C8.07623 -0.0436782 8.4557 0.345122 8.4557 0.817922V7.67412C8.4557 8.14812 8.83458 8.53152 9.30167 8.53152H16.0659ZM46.4645 18.8581C47.1372 18.8581 47.7825 19.129 48.2582 19.6112C48.7339 20.0933 49.0012 20.7473 49.0012 21.4291C49.0012 22.111 48.7339 22.7649 48.2582 23.2471C47.7825 23.7293 47.1372 24.0001 46.4645 24.0001H42.237C41.5642 24.0001 40.919 23.7293 40.4433 23.2471C39.9675 22.7649 39.7003 22.111 39.7003 21.4291C39.7003 20.7473 39.9675 20.0933 40.4433 19.6112C40.919 19.129 41.5642 18.8581 42.237 18.8581H46.4645ZM43.9278 17.1439C48.598 17.1439 52.3839 13.3069 52.3839 8.57412C52.3859 7.12029 52.0213 5.69005 51.3248 4.41912L52.7219 3.00312C52.8828 2.83994 53.0105 2.64623 53.0975 2.43306C53.1846 2.21988 53.2294 1.99141 53.2293 1.7607C53.2293 1.52998 53.1844 1.30153 53.0972 1.0884C53.0101 0.875269 52.8823 0.681624 52.7213 0.518522C52.5603 0.35542 52.3692 0.226056 52.1589 0.137816C51.9485 0.0495763 51.7231 0.00418852 51.4955 0.00424423C51.2678 0.00429995 51.0424 0.0497981 50.8321 0.138141C50.6218 0.226484 50.4308 0.355941 50.2698 0.519122L49.0503 1.75512C47.5791 0.616265 45.7784 0.000702683 43.9272 0.00372178C39.2581 0.00432178 35.4728 3.84012 35.4728 8.57412C35.4728 13.3069 39.2581 17.1439 43.9278 17.1439ZM70.1409 8.57412C70.1409 13.3069 66.3551 17.1439 61.6848 17.1439C57.0151 17.1439 53.2293 13.3069 53.2293 8.57412C53.2293 3.84012 57.0151 0.00432178 61.6848 0.00432178C66.3551 0.00432178 70.1409 3.84072 70.1409 8.57412Z" fill="url(#paint0_linear_0_578)"/>
</g>
<defs>
<linearGradient id="paint0_linear_0_578" x1="0.000164684" y1="9.60012" x2="70.4482" y2="9.60012" gradientUnits="userSpaceOnUse">
<stop stop-color="#64C2DB"/>
<stop offset="0.307" stop-color="#7476ED"/>
<stop offset="0.604" stop-color="#C994DF"/>
<stop offset="1" stop-color="#E56F8C"/>
</linearGradient>
<clipPath id="clip0_0_578">
<rect width="74" height="24" fill="white"/>
</clipPath>
</defs>
</svg>
