<svg width="44" height="44" viewBox="0 0 44 44" fill="none" xmlns="http://www.w3.org/2000/svg">
<rect width="44" height="44" rx="10" fill="#1E3672" fill-opacity="0.02"/>
<path opacity="0.4" d="M22 16.44V19.77" stroke="#1D1F24" stroke-width="1.5" stroke-miterlimit="10" stroke-linecap="round"/>
<path d="M22.02 12C18.34 12 15.36 14.98 15.36 18.66V20.76C15.36 21.44 15.08 22.46 14.73 23.04L13.46 25.16C12.68 26.47 13.22 27.93 14.66 28.41C19.44 30 24.61 30 29.39 28.41C30.74 27.96 31.32 26.38 30.59 25.16L29.32 23.04C28.97 22.46 28.69 21.43 28.69 20.76V18.66C28.68 15 25.68 12 22.02 12Z" stroke="#1D1F24" stroke-width="1.5" stroke-miterlimit="10" stroke-linecap="round"/>
<path opacity="0.4" d="M25.33 28.82C25.33 30.65 23.83 32.15 22 32.15C21.09 32.15 20.25 31.77 19.65 31.17C19.05 30.57 18.67 29.73 18.67 28.82" stroke="#1D1F24" stroke-width="1.5" stroke-miterlimit="10"/>
</svg>
